<svg width="130" height="56" viewBox="0 0 130 56" fill="none" xmlns="http://www.w3.org/2000/svg">
<path d="M4.31713 48.5948C3.61299 48.5948 2.90181 48.4328 2.18359 48.109C1.47944 47.771 0.937259 47.2006 0.557019 46.3979L0.514771 46.2289C0.514771 46.1022 0.557019 45.9895 0.641516 45.8909C0.726013 45.7782 0.852759 45.7219 1.02175 45.7219C1.17666 45.7219 1.29636 45.7994 1.38086 45.9542C1.93009 47.0809 2.90885 47.6442 4.31713 47.6442C4.73962 47.6442 5.1621 47.5879 5.58459 47.4752C7.19003 46.9119 8.54198 45.4262 9.64041 43.018C11.612 38.9621 13.1893 34.7514 14.3723 30.3857C15.6256 26.1468 16.4635 21.8304 16.886 17.4366C16.9424 16.8451 16.9705 16.2606 16.9705 15.6832C16.9705 15.3452 16.9565 14.8665 16.9283 14.2468C16.9002 13.6131 16.7452 12.8596 16.4635 11.9865C16.1538 11.0852 15.6468 10.2825 14.9426 9.57833C14.2526 8.86011 13.4287 8.501 12.4711 8.501H12.4077C11.605 8.55733 10.6756 9.04319 9.61934 9.95857C7.28157 11.9161 5.5353 14.3313 4.3805 17.2041C4.26784 17.3873 4.11997 17.4788 3.9369 17.4788C3.62708 17.4788 3.47216 17.3309 3.47216 17.0352L3.49329 16.9084C4.42275 14.5988 5.73246 12.5498 7.4224 10.7613C9.29538 8.63479 11.0136 7.57153 12.5767 7.57153C12.9147 7.57153 13.2667 7.61378 13.6329 7.69828C14.6328 8.05035 15.4496 8.63479 16.0833 9.45159C16.7312 10.2543 17.1959 11.1415 17.4775 12.1132C17.7592 13.1695 17.9 14.2961 17.9 15.4932C17.9 16.3944 17.8507 17.2886 17.7522 18.1759C16.9212 25.499 15.0623 32.646 12.1753 39.617L11.9641 40.1451C11.2459 42.0885 10.3234 43.9193 9.19684 45.6374C8.67579 46.4261 8.04201 47.0879 7.29565 47.6231C6.39435 48.2709 5.40151 48.5948 4.31713 48.5948ZM23.3433 24.1752C24.1179 23.288 24.9558 22.1332 25.8571 20.7108L26.0683 20.3939C26.5471 19.718 26.8006 19.2955 26.8288 19.1265C26.7443 19.1828 26.6035 19.3447 26.4063 19.6124L26.3218 19.7391C25.0825 21.2741 24.0897 22.7528 23.3433 24.1752ZM17.006 38.2862C17.6679 37.582 18.2664 36.5188 18.8016 35.0964C19.1396 34.167 19.3086 33.4276 19.3086 32.8783L19.0551 33.491L17.2595 37.8215L17.006 38.2862ZM16.5202 39.8705C16.1963 39.8705 16.0343 39.5606 16.0343 38.941C16.0343 38.5185 16.2245 37.927 16.6047 37.1666L18.696 32.2024C18.5129 32.0193 18.4214 31.8644 18.4214 31.7376C18.4214 31.4842 18.5622 31.3434 18.8438 31.3152H19.0762C19.6536 29.9632 20.2662 28.5761 20.914 27.1537L20.8929 27.1114C20.8929 27.0129 20.9704 26.872 21.1252 26.689C22.3646 24.0554 23.8151 21.6333 25.4769 19.4222C26.0683 18.5913 26.6598 18.1196 27.2513 18.0069C27.5611 18.0069 27.716 18.2463 27.716 18.7251C27.716 19.1476 27.4837 19.718 27.0189 20.4362C25.7796 22.5486 24.0545 24.7948 21.8434 27.1748C21.2097 28.4986 20.5549 29.9562 19.879 31.5476C20.062 31.5616 20.1535 31.6954 20.1535 31.9489V32.1391C20.1817 32.8854 20.6817 33.2586 21.6534 33.2586C21.6815 33.2586 21.9421 33.2586 22.4349 33.2586C22.9278 33.2445 23.7447 33.0826 24.8854 32.7728C26.0261 32.4488 26.9203 32.1742 27.5682 31.9489C27.8357 31.8503 27.9977 31.8011 28.054 31.8011C28.3216 31.8011 28.4554 31.9419 28.4554 32.2235C28.4554 32.4206 28.3568 32.5615 28.1597 32.646C26.3429 33.2797 24.4699 33.7585 22.5406 34.0825C22.2871 34.1388 22.0406 34.167 21.8012 34.167C21.2239 34.167 20.6746 34.019 20.1535 33.7233L20.0902 33.7022C20.062 33.8712 19.9986 34.1317 19.9 34.4838C19.3086 36.5399 18.2806 38.2932 16.8159 39.7438C16.7173 39.8283 16.6187 39.8705 16.5202 39.8705ZM31.2759 35.1387C30.614 35.1387 30.2831 34.857 30.2831 34.2937C30.2831 34.1247 30.3324 33.9345 30.431 33.7233C30.8535 32.9488 31.4097 32.2939 32.0998 31.7588L32.1843 31.6743C33.1419 30.8716 33.6207 30.2942 33.6207 29.9421C33.6207 29.8295 33.5785 29.745 33.494 29.6886L33.4095 29.6675C33.3532 29.6675 33.2616 29.6886 33.1348 29.7308H33.1138C32.6068 29.914 32.1279 30.2097 31.6773 30.6181C30.9872 31.1954 30.3817 31.5264 29.8606 31.6109C29.4241 32.0756 28.8819 32.4066 28.2341 32.6038L28.0862 32.6249C27.8327 32.6249 27.7059 32.4841 27.7059 32.2024C27.7059 32.0052 27.8045 31.8644 28.0017 31.7799C28.3538 31.6672 28.6073 31.5476 28.7621 31.4208C28.565 31.3504 28.4664 31.0899 28.4664 30.6392C28.4664 30.4562 28.5439 30.2308 28.6988 29.9632C28.8678 29.6957 29.1565 29.5618 29.5648 29.5618C30.1 29.5618 30.3676 29.8505 30.3676 30.428L30.3887 30.5125C30.6282 30.3717 30.8957 30.1815 31.1914 29.9421L31.2126 29.921C32.1139 29.1887 32.8884 28.8225 33.5363 28.8225C33.9305 28.8225 34.2263 29.0478 34.4235 29.4985C34.4657 29.6534 34.4868 29.8083 34.4868 29.9632C34.4868 30.6955 33.7475 31.6109 32.2688 32.7093C32.0576 32.9065 31.8393 33.1248 31.6139 33.3642C31.3323 33.66 31.1914 33.9275 31.1914 34.167C31.1914 34.2514 31.2337 34.2937 31.3182 34.2937L32.0153 34.1247C34.1982 33.505 36.2261 32.7375 38.099 31.8221L38.2681 31.8011C38.3667 31.8011 38.4652 31.8362 38.5638 31.9066C38.6624 31.9771 38.7117 32.0897 38.7117 32.2446C38.7117 32.3855 38.6342 32.4911 38.4793 32.5615C36.6486 33.4487 34.8319 34.174 33.0293 34.7373L32.6701 34.8429C32.2054 34.9979 31.7407 35.0964 31.2759 35.1387ZM29.3748 30.7871C29.4733 30.6322 29.5226 30.4984 29.5226 30.3857C29.5085 30.3575 29.4663 30.3435 29.3959 30.3435C29.3396 30.3435 29.3114 30.3857 29.3114 30.4702C29.3114 30.6814 29.3325 30.7871 29.3748 30.7871ZM38.6323 33.4065C38.8858 33.4065 39.1886 33.336 39.5406 33.1953C40.2448 32.9136 40.9067 32.5545 41.5263 32.1179C41.2869 31.963 40.97 31.8856 40.5757 31.8856C40.2096 31.8856 39.6956 32.0193 39.0336 32.2869C38.3859 32.5545 38.0619 32.7938 38.0619 33.0051C38.0619 33.0755 38.0901 33.146 38.1464 33.2163C38.245 33.3431 38.4069 33.4065 38.6323 33.4065ZM38.3577 34.3148C37.6254 34.3148 37.231 33.9416 37.1747 33.1953C37.1888 32.6319 37.4212 32.2165 37.8718 31.9489C38.8717 31.3574 39.8363 31.0617 40.7658 31.0617C41.2587 31.0617 41.7235 31.2096 42.1601 31.5053C42.2304 31.5616 42.3149 31.5898 42.4136 31.5898C42.6952 31.5898 42.836 31.7658 42.836 32.1179C42.836 32.8925 43.3641 33.2797 44.4203 33.2797C45.9131 33.2797 47.8495 32.8431 50.2295 31.9701C50.4971 31.8714 50.6661 31.8221 50.7365 31.8221C50.8491 31.8221 50.9407 31.8714 51.0111 31.9701C51.0956 32.0686 51.1378 32.1672 51.1378 32.2658C51.1378 32.4629 51.0393 32.5967 50.8421 32.6671C49.0114 33.315 47.1383 33.7937 45.2231 34.1035C44.9696 34.1599 44.716 34.188 44.4626 34.188C43.8993 34.188 43.3571 34.0402 42.836 33.7445C42.4136 33.4346 42.1601 33.1108 42.0756 32.7728C41.3151 33.3501 40.4208 33.8008 39.3928 34.1247C38.9562 34.2514 38.6112 34.3148 38.3577 34.3148ZM54.8023 37.061C54.6333 37.061 54.4994 37.0046 54.4009 36.892C54.3586 36.8356 54.3375 36.7723 54.3375 36.7018L54.3586 36.5328C54.6544 35.7724 54.9431 35.0049 55.2248 34.2303C55.774 32.7798 56.3373 31.3363 56.9147 29.8998L56.8302 29.9632C54.8586 31.0757 52.7884 31.9911 50.6196 32.7093L50.4929 32.7305C50.3802 32.7305 50.2887 32.6883 50.2183 32.6038C50.1479 32.5193 50.1127 32.4206 50.1127 32.308C50.1127 32.2658 50.1127 32.2024 50.1127 32.1179C50.1267 32.0193 50.2183 31.9419 50.3873 31.8856C52.8236 31.0687 55.1403 29.9914 57.3372 28.6535L57.4216 28.6113C59.534 23.9358 62.407 19.2673 66.0403 14.6059C67.0543 13.1272 68.2865 11.8879 69.7371 10.888C70.2581 10.5219 70.7018 10.3388 71.0679 10.3388C71.7017 10.3388 72.0185 10.7613 72.0185 11.6063C72.0185 11.8738 71.9974 12.1203 71.9551 12.3456C71.5327 14.1905 70.7792 15.9015 69.6948 17.4788L69.6737 17.5421C66.7867 22.3726 62.928 26.2947 58.0976 29.3083C58.0694 29.3365 58.0343 29.3577 57.992 29.3718C57.2456 31.0476 56.5978 32.7586 56.0485 34.5049L55.7951 35.2021C55.8092 35.1739 55.8303 35.1527 55.8585 35.1387L56.8302 34.2725C58.506 32.7516 60.2312 31.287 62.0056 29.8787C63.0055 29.0056 64.0265 28.569 65.0686 28.569C65.9418 28.569 66.822 28.8718 67.7092 29.4773C68.1035 29.8013 68.4767 30.1463 68.8287 30.5125C69.3216 31.0194 69.8568 31.4842 70.4342 31.9066C72.7719 33.484 75.5606 34.2725 78.7994 34.2725C81.7424 34.2725 85.3196 33.498 89.5304 31.9489L89.6783 31.9278C89.777 31.9278 89.8614 31.9701 89.9316 32.0546C90.0026 32.1249 90.0377 32.2165 90.0377 32.3291C90.0377 32.3714 90.0302 32.4418 90.016 32.5404C90.016 32.6249 89.9316 32.7023 89.7628 32.7728C86.9043 33.843 83.9606 34.5824 80.9332 34.9908C80.1301 35.1034 79.3419 35.1598 78.5671 35.1598C74.765 35.1598 71.3637 33.8642 68.364 31.2729C67.7162 30.6252 67.1951 30.1533 66.8008 29.8576C66.3501 29.5196 65.8291 29.3436 65.2376 29.3295C64.1955 29.3718 63.0478 29.9843 61.7944 31.1673L55.0768 36.9553C54.9923 37.0258 54.9008 37.061 54.8023 37.061ZM58.668 27.9142L58.7313 27.8719C61.4916 25.9989 63.935 23.7739 66.0615 21.1966C67.3993 19.5772 68.4767 17.9998 69.2934 16.4649C70.5046 14.5778 71.1242 13.0005 71.1524 11.733C71.1524 11.4373 71.082 11.2894 70.9412 11.2894C70.8707 11.2894 70.7722 11.3176 70.6454 11.3739C70.1243 11.6133 69.6315 11.9442 69.1667 12.3667C67.8852 13.5638 66.1882 15.6692 64.0758 18.6829C62.2168 21.3446 60.4142 24.4216 58.668 27.9142ZM94.6236 34.0191H94.4338C93.7435 34.0191 93.0464 33.8923 92.3426 33.6388C91.5678 33.315 91.0964 32.8361 90.9268 32.2024C90.7019 32.3714 90.3851 32.5333 89.9764 32.6883L89.8502 32.7093C89.5962 32.7093 89.4699 32.5686 89.4699 32.2869C89.4699 32.0897 89.5611 31.9489 89.7441 31.8644C90.2088 31.7095 90.5891 31.456 90.885 31.1039C90.9836 30.9772 91.1106 30.9138 91.2652 30.9138C91.5327 30.9138 91.6665 31.0476 91.6665 31.3152V31.4208C91.6665 31.9982 91.8779 32.4206 92.3 32.6883C92.7371 32.9558 93.1801 33.1037 93.6314 33.1318C94.0819 33.16 94.4338 33.1741 94.6871 33.1741C95.0255 33.1741 95.3281 33.16 95.5956 33.1318C97.3984 32.977 99.1444 32.5474 100.834 31.8433L100.961 31.8221C101.215 31.8221 101.342 31.963 101.342 32.2446C101.342 32.4277 101.257 32.5686 101.088 32.6671C99.0174 33.5262 96.8627 33.9768 94.6236 34.0191ZM92.2156 28.907C92.1028 28.907 91.9907 28.8718 91.8779 28.8014C91.5962 28.7169 91.455 28.5056 91.455 28.1676C91.455 27.9846 91.5185 27.8438 91.6455 27.7452C91.786 27.6466 91.913 27.5973 92.0258 27.5973C92.1663 27.5973 92.3 27.6184 92.427 27.6607C92.6803 27.7734 92.8073 27.9776 92.8073 28.2733C92.8073 28.3719 92.7864 28.4775 92.7438 28.5901C92.631 28.8014 92.4554 28.907 92.2156 28.907ZM124.901 33.7022C123.212 33.7022 121.824 32.9981 120.739 31.5898C120.021 30.6181 119.318 30.1322 118.627 30.1322C118.107 30.1322 117.48 30.4843 116.747 31.1884C116.339 31.6109 115.895 31.9348 115.416 32.1601C115.022 32.1601 114.79 31.9066 114.719 31.3997C114.55 30.7096 114.106 30.3294 113.388 30.259C112.783 30.259 112.1 30.604 111.34 31.2941C110.171 32.4629 109.284 33.0473 108.678 33.0473C108.129 33.0473 107.854 32.4981 107.854 31.3997C107.854 31.0335 107.896 30.6744 107.981 30.3223C108.065 29.745 108.108 29.3225 108.108 29.0549C108.108 28.9423 108.051 28.8859 107.938 28.8859L106.185 29.9421C104.566 30.9983 102.89 31.8856 101.157 32.6038L101.031 32.6249C100.778 32.6249 100.651 32.4911 100.651 32.2235C100.651 32.0404 100.735 31.8996 100.904 31.8011C102.608 31.0969 104.235 30.2237 105.783 29.1816C105.882 29.1253 105.995 29.0478 106.122 28.9493C107.023 28.3156 107.72 27.9987 108.213 27.9987C108.692 28.0128 108.931 28.4001 108.931 29.1605C108.931 29.5689 108.896 29.9773 108.826 30.3857C108.77 30.6814 108.727 31.0124 108.699 31.3786C108.699 31.7447 108.727 31.9841 108.783 32.0968L108.91 32.1179L109.037 32.0756C109.361 31.9066 109.755 31.6039 110.22 31.1673C110.755 30.6744 111.227 30.273 111.635 29.9632C112.171 29.597 112.726 29.414 113.304 29.414C113.839 29.414 114.318 29.59 114.741 29.9421C115.134 30.2378 115.409 30.6392 115.564 31.1462C115.719 31.0194 115.923 30.8293 116.177 30.5758C116.923 29.8295 117.698 29.407 118.5 29.3083C119.599 29.3083 120.564 29.9069 121.395 31.1039C122.268 32.2306 123.422 32.815 124.859 32.8573C126.366 32.815 127.816 32.47 129.21 31.8221L129.358 31.8011C129.626 31.8011 129.781 31.9348 129.823 32.2024C129.823 32.3714 129.746 32.4981 129.591 32.5826C128.309 33.146 126.971 33.505 125.577 33.66C125.338 33.6881 125.112 33.7022 124.901 33.7022Z" fill="white"/>
</svg>
